<?xml version="1.0" encoding="utf-8"?>
<!-- Generator: Adobe Illustrator 24.1.0, SVG Export Plug-In . SVG Version: 6.00 Build 0)  -->
<svg version="1.1" id="レイヤー_1" xmlns="http://www.w3.org/2000/svg" xmlns:xlink="http://www.w3.org/1999/xlink" x="0px"
	 y="0px" viewBox="0 0 50 54.7" style="enable-background:new 0 0 50 54.7;" xml:space="preserve">
<style type="text/css">
	.st0{fill:#FFFFFF;}
</style>
<g id="レイヤー_2_1_">
	<g id="contents">
		<path class="st0" d="M25,0C15.3,0,7.4,7.9,7.4,17.6S15.3,35.2,25,35.2s17.6-7.9,17.6-17.6l0,0C42.6,7.9,34.7,0,25,0z M35,27.6
			c-5.5,5.5-14.5,5.5-20,0s-5.5-14.5,0-20s14.5-5.5,20,0S40.5,22.1,35,27.6z"/>
		<polyline class="st0" points="21.9,26.6 36.5,11.9 33.2,8.6 21.9,19.9 16.8,14.9 13.4,18.2 		"/>
		<g>
			<path class="st0" d="M14.9,42.4c-0.1,0.1-0.1,0.1-0.3,0.3c-0.4,0.5-1,1.1-1.5,1.5c0.8,0.5,1.4,0.7,2.5,1.2
				c-0.4,0.6-0.6,0.9-0.9,1.7c-1.7-0.8-2.6-1.3-4-2.4v1c-0.3,0-0.5-0.1-1.1-0.1H6.1c-0.4,0-0.7,0-1,0.1v-1.1
				c-1.4,1.1-2.3,1.7-4.1,2.6c-0.3-0.7-0.5-1.1-0.9-1.6c1.2-0.5,2-0.9,3.1-1.6c-0.9-0.9-1.3-1.3-2.2-1.9L2.1,41
				c0.9,0.7,1.6,1.3,2.3,2c0.8-0.7,1-1,1.6-1.7H3.8c-0.3,0-0.6,0-1,0.1v-1.7c0.4,0.1,0.7,0.1,1.4,0.1h3.1c0.8,0,1.1,0,1.4-0.1
				c0.2,0.7,0.4,1.1,1.1,1.9c0.6-0.6,1.1-1.3,1.4-1.8l1.4,0.9c-0.4,0.6-1.1,1.4-1.7,1.9c0.4,0.4,0.6,0.5,1,0.8
				c0.7-0.7,1.3-1.3,1.6-2L14.9,42.4z M4.8,52.6c-0.1-0.4-0.4-1-0.7-1.3l1.5-0.5H3.8c-0.5,0-0.9,0-1.2,0c0-0.4,0.1-0.7,0.1-1.2v-2.1
				c0-0.4,0-0.7-0.1-1.1c0.4,0,0.8,0.1,1.3,0.1h7.8c0.6,0,0.9,0,1.3-0.1c0,0.4-0.1,0.6-0.1,1.1v2.1c0,0.6,0,0.8,0.1,1.2
				c-0.3,0-0.6,0-1.2,0h-1.6l1.4,0.5c-0.3,0.5-0.6,1.2-0.8,1.4h2.8c0.8,0,1.1,0,1.6-0.1v1.8c-0.5-0.1-0.9-0.1-1.7-0.1H2.2
				c-0.8,0-1.2,0-1.7,0.1v-1.8c0.5,0.1,0.8,0.1,1.6,0.1H4.8z M4.4,49.3h6.8v-1.3H4.4V49.3z M9.7,44.2c0.1,0,0.1,0,0.4,0
				c-0.9-0.8-1.5-1.5-2.3-2.6c-0.7,1.1-1.4,1.8-2.3,2.6c0.2,0,0.2,0,0.6,0H9.7z M9.1,52.6c0.4-0.6,0.7-1.4,0.8-1.9H5.8
				c0.3,0.6,0.6,1.2,0.8,1.9H9.1z"/>
			<path class="st0" d="M19.6,44.9c-0.4,0-0.6,0-1,0v-0.9c-0.3,0.3-0.4,0.4-0.8,0.6c-0.2-0.7-0.4-1-0.8-1.6c1.4-0.9,2.3-2.2,2.9-3.6
				h1.8c0.6,1.2,1.2,1.9,2.4,2.8c-0.5,0.5-0.7,0.9-1,1.5l-0.1-0.1V45c-0.4,0-0.5,0-1,0h-0.5V46h0.7c0.5,0,0.9,0,1.2-0.1v-1.4
				c0.5,0.1,0.9,0.1,1.6,0.1h4.2c0-0.5,0-0.7,0.1-0.9h-3.3c-0.7,0-1.1,0-1.5,0.1v-1.6c0.4,0.1,0.7,0.1,1.5,0.1h3.3
				c0-0.4,0-0.5,0-0.9h-3.7c-0.7,0-1.2,0-1.6,0.1v-1.6c0.5,0.1,0.9,0.1,1.7,0.1h3.9c0.7,0,1.1,0,1.5-0.1c0,0.4,0,0.4-0.1,1.6
				c0,0.9-0.1,2.3-0.2,3.2H31c0.7,0,1.1,0,1.6-0.1v1.6c-0.4,0-1-0.1-1.6-0.1h-2.2c0.1,0.9,0.3,1.4,0.8,2.5c0.7-0.7,1.2-1.2,1.6-2
				l1.4,1c-0.8,1-1.5,1.8-2.2,2.4c0.7,1,1.4,1.6,2.6,2.4c-0.4,0.6-0.7,0.9-1,1.6c-1.1-0.9-1.5-1.4-2-2.1c-0.5-0.8-0.8-1.3-1.3-2.6
				c0,0.3,0.1,0.9,0.1,1.8v2.1c0,1.1-0.5,1.5-1.8,1.5c-0.4,0-0.8,0-1.5-0.1c-0.1-0.8-0.1-1.1-0.4-1.7c0.5,0.1,1,0.2,1.3,0.2
				c0.6,0,0.7-0.1,0.7-0.4v-1.6c-0.6,0.5-0.7,0.6-1.2,0.9c-0.3,0.2-0.3,0.2-1.4,1c-0.3,0.2-0.3,0.2-0.5,0.4l-0.5-1.2v0.7
				c-1.7,0.5-2.9,0.9-4.4,1.2c-0.8,0.1-0.8,0.1-1.3,0.3l-0.2-1.8c0.7,0,1.3-0.1,2.6-0.3v-4.6h-0.9c-0.7,0-1.2,0-1.6,0.1V46
				c0.4,0,0.9,0.1,1.6,0.1h0.8v-1.1H19.6z M18.3,51.8c-0.1-1.1-0.3-2-0.7-3.2l1.3-0.4c0.3,1.1,0.5,1.8,0.7,3.2L18.3,51.8z
				 M19.7,43.4h2.5c0.3,0,0.4,0,0.6,0c-0.7-0.7-1.2-1.3-1.8-2.3c-0.5,0.9-0.9,1.6-1.7,2.4H19.7z M25.1,46.2c-0.6,0-1.1,0-1.5,0.1
				v1.4c-0.4-0.1-0.7-0.1-1.3-0.1h-0.7v4.3c0.6-0.1,0.9-0.2,1.8-0.5v0.3c1.3-0.6,2.4-1.4,3.7-2.4v-3.1H25.1z M21.8,50.8
				c0.3-1,0.5-1.7,0.7-2.7l1.3,0.4c-0.2,1.1-0.4,1.7-0.8,2.7L21.8,50.8z M25.2,46.6c0.8,1.1,1,1.4,1.4,2.5l-1.3,0.8
				c-0.4-1.1-0.8-1.8-1.5-2.6L25.2,46.6z"/>
			<path class="st0" d="M35.4,43.6c1.1,0.6,1.8,1.1,2.7,1.9c1.7-0.1,3.1-0.5,4.4-1c-0.9-0.7-1.6-1.4-2.2-2.2c-0.7,0-1,0-1.5,0.1
				v-0.6L37.7,43c-0.9-0.9-1.5-1.4-2.8-2.2l1.1-1.3c1,0.6,1.8,1.2,2.7,2v-0.8c0.4,0.1,0.9,0.1,1.7,0.1H43v-0.2c0-0.5,0-0.8-0.1-1.2
				h1.9c0,0.4-0.1,0.7-0.1,1.2v0.2h3.1c0.8,0,1.3,0,1.8-0.1v1.7c-0.4-0.1-0.8-0.1-1.6-0.1h-0.4c-0.5,0.8-1.1,1.5-2.1,2.2
				c1.4,0.5,2.7,0.8,4.4,1c-0.4,0.6-0.5,0.9-0.7,1.6c-0.7-0.1-0.9-0.2-1.4-0.3v5.9c0,0.8,0,1.4,0.1,1.9H46c0.1-0.5,0.1-1.1,0.1-1.9
				v-1.2h-5c-0.4,1.4-1,2.2-2.2,3.2c-0.4-0.6-0.8-0.9-1.5-1.3c1.9-1.5,2.4-2.8,2.5-6.5c-0.4,0.1-0.6,0.1-1.2,0.2
				c-0.1-0.5-0.2-0.9-0.5-1.3l-0.9,1.4c-1.1-1-1.5-1.4-2.9-2.2L35.4,43.6z M38.3,49.1c-0.5,1.8-1,2.9-1.7,4.3
				c-0.1,0.2-0.3,0.6-0.6,1.2l-1.6-1.4c0.3-0.4,0.4-0.5,0.7-0.9c0.7-1.1,1.2-2.5,1.8-4.3L38.3,49.1z M41.6,48.7
				c0,0.5-0.1,0.8-0.1,1.3h4.7v-1.3H41.6z M46.1,46.4c-0.8-0.3-1.3-0.5-2.1-0.9c-0.9,0.5-1.5,0.7-2.4,1c0,0.4,0,0.4,0,0.7h4.5V46.4z
				 M42.2,42.3c0.4,0.6,0.9,0.9,1.7,1.4c0.8-0.5,1.2-0.9,1.6-1.4H42.2z"/>
		</g>
	</g>
</g>
</svg>
